<svg xmlns="http://www.w3.org/2000/svg" fill="none" viewBox="0 0 16 27" height="27" width="16">
<path fill="#A59084" d="M11.4747 10.1987C8.18066 10.8318 4.97435 11.8213 1.51897 11.9364C1.71541 11.3224 3.22385 11.369 3.97106 11.1826C6.8371 10.4755 11.7834 8.46373 13.155 6.31217C14.46 4.26476 12.5551 2.90256 9.85749 3.19309C8.0649 3.38769 7.82285 4.5964 6.95286 5.57762C5.66542 7.03575 3.59921 8.74055 1.51195 9.46961C4.22714 8.01423 7.50362 3.29724 5.75663 0.893529C5.03749 -0.0986549 3.23438 -0.320663 2.21355 0.512552C0.529708 1.88297 1.19272 5.01575 0.592852 6.76989C0.519184 6.98641 0.259592 7.4825 0 7.65792V18.3116L0.778777 19.4216C1.58562 21.2333 1.23482 23.2917 1.533 25.1253C1.99255 27.9264 6.60908 27.3426 6.95286 24.9992C7.27911 22.7819 5.57422 19.978 3.79215 18.3006C3.53957 18.0621 1.83469 16.8863 1.95396 16.7246C2.11182 16.5081 2.33984 16.5985 2.57487 16.6506C3.6378 16.8863 5.92151 19.1256 6.66871 19.8848C7.93861 21.1757 9.48564 24.2866 12.043 22.2693C14.9686 19.9615 9.94519 17.0508 7.54221 16.0613C6.12497 15.4775 4.46218 15.1651 3.15369 14.425C2.93269 14.3017 2.66608 14.2853 2.74677 13.9893C5.79522 14.595 11.1169 16.6506 14.1899 15.7379C16.2877 15.1157 16.3052 12.3831 15.5229 11.062C14.6354 9.56828 13.1094 9.88074 11.4712 10.1959L11.4747 10.1987ZM3.79566 4.96367C3.99561 5.13909 2.73273 7.02204 2.22057 7.15086C2.30827 6.35328 2.65907 5.20761 3.79566 4.96367ZM1.32252 10.6235C2.8485 10.1877 4.17102 9.6971 5.45845 8.92419C5.98816 8.60625 6.37755 8.00052 7.12826 7.97037C7.7141 9.2942 1.61719 11.2429 1.20324 11.0812C1.10853 11.0429 1.32953 10.7277 0.466564 10.9771C0.340276 10.5111 0.996273 10.714 1.32252 10.6208V10.6235ZM2.36439 18.4568C2.91515 19.1256 3.80969 20.3617 3.62727 21.1648C3.56413 21.4389 3.21684 21.6499 2.93269 21.5046C2.59943 21.3347 1.29445 17.5112 0.470072 16.9987C0.898049 16.7356 2.13988 18.1773 2.3679 18.4568H2.36439ZM3.78513 15.4364C5.25148 16.1134 6.65819 17.1303 7.82986 18.0923C6.81956 18.1087 6.23372 17.3303 5.53563 16.9439C4.69722 16.4779 3.67989 15.9243 2.79939 15.5241C2.13287 15.2199 0.869985 14.9239 0.396404 14.6635C0.1754 14.5402 -0.031572 14.2798 0.115764 14.1318C0.238544 14.0084 3.44135 15.2857 3.78163 15.4419L3.78513 15.4364ZM5.03048 12.9642C5.05503 12.564 7.86494 12.3256 7.82986 13.1697C7.62289 13.3232 5.36374 13.2958 5.03048 12.9642Z"></path>
</svg>
